<?xml version="1.0" encoding="UTF-8"?>
<svg id="Layer_1" xmlns="http://www.w3.org/2000/svg" version="1.1" xmlns:xlink="http://www.w3.org/1999/xlink" viewBox="0 0 1200 1200">
  <!-- Generator: Adobe Illustrator 30.2.1, SVG Export Plug-In . SVG Version: 2.1.1 Build 1)  -->
  <defs>
    <style>
      .st0, .st1 {
        fill: #003212;
      }

      .st1, .st2 {
        display: none;
      }

      .st3, .st2 {
        fill: none;
      }

      .st4 {
        clip-path: url(#clippath);
      }
    </style>
    <clipPath id="clippath">
      <rect class="st3" x="-773.14" y="-518.26" width="2760.27" height="2760.27"/>
    </clipPath>
  </defs>
  <line class="st2" x1="-37.55" x2="-37.55" y2="1200"/>
  <g class="st4">
    <g>
      <path class="st0" d="M1029.01,368.63l-7.46-2.64,1.29-7.79c7.63-46.91-4.46-95.21-34.07-136.04-38.31-52.79-103.35-83.73-178.44-84.87h-.94l-.61-.66c-23.17-23.84-80.92-72.37-207.95-129.65-126.96,57.28-184.75,105.81-207.89,129.65l-.64.66h-.9c-75.1,1.14-140.14,32.08-178.46,84.84-29.6,40.83-41.7,89.13-34.06,136.07l1.26,7.79-7.44,2.64c-65.22,23.11-147.9,195.1-164.97,231.95,17.09,36.85,99.79,208.83,164.98,231.93l7.42,2.63-1.26,7.8c-7.64,46.92,4.45,95.25,34.06,136.07,38.34,52.77,103.36,83.68,178.46,84.82l.9.04.64.64c23.17,23.85,80.93,72.38,207.89,129.65,126.99-57.27,184.78-105.8,207.95-129.65l.61-.64.94-.04c75.09-1.14,140.09-32.05,178.44-84.82,29.6-40.86,41.7-89.17,34.07-136.07l-1.29-7.8,7.46-2.63c65.16-23.1,147.88-195.08,164.96-231.93-17.08-36.85-99.76-208.86-164.96-231.95M469.73,147.96c66.42-51.6,129.78-74.24,130.39-74.47l.72-.25.76.25c.64.23,63.98,22.87,130.4,74.47l3.44,2.65-4.16,1.22c-.71.19-69.66,21.02-120.84,99.55l-9.6,13.67-9.59-13.73c-51.11-78.38-120.11-99.3-120.8-99.49l-4.13-1.22,3.41-2.65ZM726.77,598.57l4.21,2.01-4.21,1.99c-89.56,42.16-116.2,89.45-123.87,108.75l-2.46,4.09-1.99-5.02c-7.25-18.36-33.81-65.62-123.51-107.83l-4.21-1.99,4.21-2.01c89.7-42.21,116.26-89.48,123.51-107.84l.38-.89,2.47-4.1,1.97,5.03c7.29,18.37,33.91,65.63,123.51,107.8M383.29,1004.34c-49.85,0-97.25-22.65-123.67-59.14-38.25-52.62-34.45-116.4,8.97-151.67,15.16-12.27,31.52-18.46,48.63-18.46,11.92,0,21.7,3.12,27.81,5.75,21.9,9.33,37.75,29.12,39.46,49.14.13.91.59,5.84-.76,13.45-.61,3.19-1.71,6.9-3.22,10.81-.38,1.04-.94,2.13-1.81,3.89-.42.94-1.01,1.95-1.57,2.96l-.87,1.55c-6.76,11.2-16.54,18.85-29.05,22.86l48.9,32.03c5.14-2.21,29.2-14.2,39.91-48.12l.49-1.09c0-.2.45-1.99.45-1.99,0,0,1.08-3.34,1.22-3.81l-.24-.09.49-1.9c5.1-21.05,3.3-36.8,3.06-38.62-3.69-39.48-32.69-76.4-73.8-93.99-16.03-6.86-32.94-10.32-50.23-10.32-30.43,0-59.88,10.84-85.16,31.32-7.04,5.75-13.71,12.38-23.05,21.72l-13.05,12.94-6.22-3.46c-55.18-30.89-113.69-170.92-115.79-180.07,2.1-8.02,60.6-148.08,115.79-178.96l6.22-3.46,13.07,12.96c9.25,9.25,15.94,15.93,23.01,21.7,25.3,20.5,54.75,31.35,85.18,31.35,17.3,0,34.2-3.49,50.23-10.37,41.11-17.59,70.1-54.48,73.8-94.06.24-1.72,2.04-17.48-3.06-38.53l-.17-1.79c-.2-.55-1.26-3.91-1.26-3.91l-.42-1.54-.08-.02-.49-1.63c-10.71-33.92-34.77-45.91-39.91-48.13l-48.9,32.04c12.52,4.02,22.29,11.7,29.1,22.94l.82,1.48c.57.99,1.16,1.99,1.92,3.61.52,1.11,1.08,2.2,1.48,3.23,1.49,3.91,2.59,7.62,3.28,11.24,1.27,7.18.82,12.12.68,12.96-1.71,20.1-17.56,39.87-39.46,49.2-6.09,2.65-15.89,5.78-27.81,5.78-17.1,0-33.47-6.21-48.63-18.5-43.41-35.25-47.21-99.04-8.99-151.66,26.45-36.47,73.84-59.14,123.7-59.14,30.08,0,59.73,7.76,88.2,23.07,63.88,34.33,96.53,93.23,91.98,165.89-4.18,66.72-58.98,179.63-237.95,179.63-46.02,0-72.46-12.78-93.4-25.19-12.1,24-25.25,51.14-29.58,60.39,4.33,9.27,17.52,36.41,29.58,60.37,20.94-12.42,47.38-25.19,93.4-25.19,178.97,0,233.77,112.91,237.95,179.65,4.55,72.63-28.1,131.56-91.98,165.88-28.42,15.3-58.13,23.05-88.2,23.05M732.01,1053.19c-66.43,51.6-129.77,74.25-131.88,74.45-.62-.21-63.98-22.85-130.39-74.45l-3.43-2.65,4.15-1.2c.68-.22,69.66-21.02,120.85-99.55l9.54-13.68,9.65,13.73c51.07,78.39,120.09,99.28,120.79,99.5l4.12,1.2-3.4,2.65ZM1011.76,780.09l-6.25,3.46-13.14-13.02c-9.2-9.21-15.92-15.89-22.92-21.64-25.3-20.49-54.76-31.32-85.23-31.32-17.27,0-34.15,3.47-50.17,10.32-41.15,17.59-70.11,54.51-73.83,94.07-.21,1.72-2.01,17.39,3.11,38.53l.13,1.75c.19.54,1.29,3.95,1.29,3.95l.39,1.58.07.08.48,1.54c10.76,33.93,34.79,45.91,39.94,48.12l48.91-32.03c-12.55-4.01-22.3-11.69-29.14-22.97l-.86-1.55c-.57-.98-1.1-1.93-1.88-3.57-.53-1.07-1.04-2.12-1.47-3.18-1.45-3.89-2.58-7.6-3.24-11.23-1.3-7.17-.82-12.1-.72-12.95,1.73-20.08,17.59-39.87,39.46-49.2,6.13-2.64,15.92-5.75,27.83-5.75,17.11,0,33.47,6.19,48.64,18.48,43.46,35.25,47.18,99.03,8.96,151.65-26.43,36.49-73.8,59.14-123.66,59.14-30.09,0-59.79-7.75-88.22-23.05-63.84-34.32-96.52-93.26-91.98-165.88,4.17-66.74,58.95-179.65,237.95-179.65,46.01,0,72.48,12.76,93.41,25.19,12.06-23.95,25.24-51.1,29.54-60.37-4.3-9.25-17.46-36.39-29.54-60.39-20.93,12.4-47.4,25.19-93.41,25.19-179,0-233.79-112.91-237.95-179.63-4.55-72.67,28.14-131.56,91.98-165.89,28.46-15.31,58.13-23.07,88.22-23.07,49.85,0,97.23,22.67,123.66,59.14,38.23,52.62,34.5,116.4-8.96,151.68-15.19,12.27-31.53,18.48-48.64,18.48-11.91,0-21.72-3.12-27.83-5.78-21.87-9.33-37.73-29.1-39.44-49.12-.11-.92-.6-5.86.77-13.48.6-3.18,1.72-6.89,3.22-10.84.38-.99.89-2.04,1.81-3.85.4-.92.93-1.87,1.52-2.84l.91-1.67c6.77-11.16,16.52-18.84,29.07-22.86l-48.91-32.04c-5.15,2.22-29.18,14.22-39.94,48.13l-.43,1.04-.51,2.05s-1.03,3.31-1.2,3.73l.26.07-.49,1.99c-5.13,21.18-3.32,36.81-3.08,38.62,3.69,39.49,32.65,76.38,73.8,93.97,16.02,6.89,32.91,10.37,50.17,10.37,30.47,0,59.93-10.86,85.2-31.35,7.08-5.77,13.79-12.45,23.05-21.72l13.04-12.94,6.25,3.46c55.35,30.97,113.68,170.95,115.73,180.07-2.05,8.02-60.42,147.97-115.73,178.95"/>
      <path class="st1" d="M-654.09,1456.6l-.03,213.89c0,1.2-.28,25.73-12.95,38.29h173.09v-48.81c-10.28,11.06-28.5,12.9-34.85,13.22h-62.16v-89.91l54.75.02c8.74.9,22.76,3.82,31.24,13.03l-.02-61.51c-8.38,9.04-22.19,11.95-30.96,12.89h-55.01v-89.36h62.43c6.21.32,24.36,2.25,34.58,13.26v-48.84h-172.83c9.55,9.53,12.07,25.99,12.72,33.83"/>
      <path class="st1" d="M550.72,1456.6v213.89c0,1.2-.34,25.73-12.98,38.29h173.11v-48.81c-10.29,11.06-28.54,12.9-34.83,13.22h-62.19v-89.91l54.77.04c8.7.88,22.71,3.8,31.2,12.99v-61.49c-8.39,9.04-22.22,11.97-30.99,12.92h-54.98v-89.39h62.44c6.18.32,24.34,2.25,34.58,13.26v-48.84h-172.87c9.6,9.53,12.08,25.99,12.74,33.83"/>
      <path class="st1" d="M2.82,1422.77h-76.39l-77.19,138.89-77.21-138.89h-76.39c9.79,9.73,12.2,26.68,12.76,34.52l.02,216.85c-.57,7.99-2.94,24.92-12.72,34.67l88.77-.02c-12.61-12.56-12.94-37.09-12.94-38.29l-.28-176.22,77.98,146.03,77.96-146.03-.28,176.22c0,1.2-.33,25.73-12.96,38.29l88.77.02c-9.78-9.75-12.14-26.68-12.71-34.67l.02-216.85c.57-7.84,2.96-24.79,12.77-34.52"/>
      <path class="st1" d="M1367.16,1414.38c-69.9,0-126.76,59.91-126.76,133.56v35.02c0,73.67,56.86,133.6,126.76,133.6s126.74-59.93,126.74-133.6v-35.02c0-73.64-56.85-133.56-126.74-133.56M1424.32,1617.57c0,30.32-23.5,54.97-52.37,54.97h-9.59c-28.9,0-52.36-24.66-52.36-54.97v-104.25c0-30.32,23.46-54.97,52.36-54.97h9.59c28.87,0,52.37,24.66,52.37,54.97v104.25Z"/>
      <path class="st1" d="M307.49,1422.77h-133.48c12.63,12.53,12.93,37.07,12.95,38.3v209.42c-.02,1.22-.32,25.73-12.95,38.29l88.74.02c-9.76-9.77-12.13-26.68-12.65-34.67v-76.75h57.39c40.79,0,74.01-35.01,74.01-78.02v-18.58c0-43.03-33.21-78.01-74.01-78.01M280.3,1560.3h-30.18l-.56-49.82.56-49.77h30.18c32.46,0,47.54,29.72,47.54,49.82s-15.08,49.77-47.54,49.77"/>
      <path class="st1" d="M1049.5,1580.35l-2.28-3.31,2.9-.61c29.64-7.6,50.35-35.35,50.35-67.39v-16.66c0-38.39-29.63-69.61-66-69.61h-138.79c12.65,12.56,12.95,37.07,12.95,38.29v209.44c0,1.2-.31,25.73-12.95,38.29l88.76.02c-9.72-9.75-12.13-26.66-12.71-34.67v-94.94l14.57-.12.77,1.58c14.08,28.49,55.26,105.8,76.3,120.68,8.54,6.02,24.76,9.23,46.92,9.23h.03c10.38,0,19.93-.75,26.07-1.33-11.01-9.6-37.54-39.32-86.91-128.88M1001.57,1545.99h-29.82v-89.78h29.82c24.32,0,40.43,27.02,40.43,44.89s-16.11,44.89-40.43,44.89"/>
      <path class="st1" d="M1781.91,1580.35l-2.28-3.31,2.88-.61c29.65-7.6,50.36-35.35,50.36-67.39v-16.66c0-38.39-29.62-69.61-65.99-69.61h-138.8c12.66,12.56,12.98,37.07,12.98,38.29v209.44c0,1.2-.32,25.73-12.98,38.29l88.77.02c-9.74-9.75-12.13-26.66-12.68-34.67v-94.94l14.55-.12.76,1.58c14.1,28.49,55.26,105.8,76.31,120.68,8.54,6.02,24.76,9.23,46.91,9.23h.02c10.41,0,19.94-.75,26.1-1.33-11.03-9.6-37.55-39.32-86.9-128.88M1733.97,1545.99h-29.8v-89.78h29.8c24.31,0,40.42,27.02,40.42,44.89s-16.11,44.89-40.42,44.89"/>
    </g>
  </g>
</svg>